:version 1.10
:name ASF
:units
  mass 1
  length 1
  angle deg
:documentation
  ASF file generated by Kaydara
:root
  axis xyz
  order  tx ty tz rx ry rz
  position 0 0 0
  orientation 0 0 0
:bonedata
  begin
    id 1
    name RightUpLegDummy
    direction -0.718183 -0.695806 0.00816078
    length 4.904
    axis 0 0 0 xyz
  end
  begin
    id 2
    name RightUpLeg
    direction 3.53373e-006 -0.995788 0.0916898
    length 17.4976
    axis -3.49089 -0.000906625 0.000286804 xyz
    dof rx ry rz
  end
  begin
    id 3
    name RightLeg
    direction 0.00371092 -0.995096 -0.0988419
    length 16.5821
    axis 3.68512 0.0193738 -0.131023 xyz
    dof rx ry rz
  end
  begin
    id 4
    name RightFoot
    direction 0.00079151 -0.46099 0.887405
    length 3.77069
    axis 4.81691e-005 -0.120479 -0.188788 xyz
    dof rx ry rz
  end
  begin
    id 5
    name RightToes
    direction 0 0 0
    length 0
    axis 0 0 0 xyz
    dof rx ry rz
  end
  begin
    id 6
    name SpineDummy
    direction 8.3039e-015 1 4.57515e-016
    length 4.6813
    axis 0 0 0 xyz
  end
  begin
    id 7
    name Spine
    direction -3.15643e-008 0.999988 0.00495137
    length 10.1015
    axis -0.001389 0.000121418 2.40972e-006 xyz
    dof rx ry rz
  end
  begin
    id 8
    name Spine1
    direction 0 0 0
    length 0
    axis -0.001389 0.000121451 1.30017e-006 xyz
    dof rx ry rz
  end
  begin
    id 9
    name HEadDummy
    direction -1.99912e-008 0.999999 0.00127422
    length 3.43865
    axis -0.001389 0.000121451 1.30017e-006 xyz
  end
  begin
    id 10
    name HEad
    direction 0 0 0
    length 0
    axis 0 0 0 xyz
    dof rx ry rz
  end
  begin
    id 11
    name LeftShoulder1Dummy
    direction 0.998891 -0.0402509 -0.0244456
    length 3.5433
    axis -0.001389 0.000121451 1.30017e-006 xyz
  end
  begin
    id 12
    name LeftShoulder1
    direction 0.99951 -0.000327763 0.0313091
    length 4.05031
    axis -0.001389 0.000121451 1.30017e-006 xyz
    dof rx ry rz
  end
  begin
    id 13
    name LeftArm
    direction 0.998561 -0.00100056 -0.0536182
    length 10.3537
    axis -23.1894 0.134784 0.967509 xyz
    dof rx ry rz
  end
  begin
    id 14
    name LeftForeArm
    direction 0.998903 0.00866432 0.046012
    length 8.70632
    axis -9.91835 -0.06569 -0.177794 xyz
    dof rx ry rz
  end
  begin
    id 15
    name LeftHand
    direction 0 0 0
    length 0
    axis 0 0 0 xyz
    dof rx ry rz
  end
  begin
    id 16
    name RightShoulderDummy
    direction -0.998891 -0.0402509 -0.0244414
    length 3.5433
    axis -0.001389 0.000121451 1.30017e-006 xyz
  end
  begin
    id 17
    name RightShoulder
    direction -0.99951 -0.000327807 0.0313133
    length 4.05031
    axis 0.215806 0.000203643 -0.0068026 xyz
    dof rx ry rz
  end
  begin
    id 18
    name RightArm
    direction -0.998573 -0.000999564 -0.053403
    length 10.3947
    axis -23.2009 -0.134239 -0.964101 xyz
    dof rx ry rz
  end
  begin
    id 19
    name RightForeArm
    direction -0.998898 0.00868028 0.0461306
    length 8.68355
    axis -9.92322 0.0658061 0.178868 xyz
    dof rx ry rz
  end
  begin
    id 20
    name RightHand
    direction 0 0 0
    length 0
    axis 0 0 0 xyz
    dof rx ry rz
  end
  begin
    id 21
    name LeftUpLegDummy
    direction 0.718183 -0.695806 0.00816078
    length 4.904
    axis 0 0 0 xyz
  end
  begin
    id 22
    name LeftUpLeg
    direction -6.81752e-006 -0.995793 0.0916337
    length 17.4976
    axis -3.48766 0.00143442 -0.000524262 xyz
    dof rx ry rz
  end
  begin
    id 23
    name LeftLeg
    direction -0.00601358 -0.995091 -0.0987824
    length 16.5821
    axis 3.68178 -0.00654042 -0.000285133 xyz
    dof rx ry rz
  end
  begin
    id 24
    name LeftFoot
    direction -0.00417578 -0.460984 0.887399
    length 3.77069
    axis 1.87233e-006 4.66016e-005 -8.6538e-006 xyz
    dof rx ry rz
  end
  begin
    id 25
    name LeftToes
    direction 0 0 0
    length 0
    axis 0 0 0 xyz
    dof rx ry rz
  end
:hierarchy
  begin
    root RightUpLegDummy SpineDummy LeftUpLegDummy
    RightUpLegDummy RightUpLeg
    RightUpLeg RightLeg
    RightLeg RightFoot
    RightFoot RightToes
    SpineDummy Spine
    Spine Spine1
    Spine1 HEadDummy LeftShoulder1Dummy RightShoulderDummy
    HEadDummy HEad
    LeftShoulder1Dummy LeftShoulder1
    LeftShoulder1 LeftArm
    LeftArm LeftForeArm
    LeftForeArm LeftHand
    RightShoulderDummy RightShoulder
    RightShoulder RightArm
    RightArm RightForeArm
    RightForeArm RightHand
    LeftUpLegDummy LeftUpLeg
    LeftUpLeg LeftLeg
    LeftLeg LeftFoot
    LeftFoot LeftToes
  end

:SAMPLES-PER-SECOND 30
:FULLY-SPECIFIED
:DEGREES
51
root  11.4058 39.7538 11.6355 77.3209 88.4365 84.4996
RightUpLeg  -3.57557 -18.2964 -12.1569
RightLeg  20.6271 -2.31842 -1.17797
RightFoot  -5.49416 -0.30801 5.3011
RightToes  0.000481921 0.542163 -0.142578
Spine  8.71569 -0.348654 3.2319
Spine1  14.8099 -0.231749 0.62618
HEad  9.85226 0.642487 -1.42693
LeftShoulder1  6.38916 -15.1789 -28.0928
LeftArm  -18.6855 -42.8218 -44.7813
LeftForeArm  -174.482 -57.8242 -165.463
LeftHand  -0.25398 0.0180481 5.50724
RightShoulder  3.91015 10.37 21.9021
RightArm  -6.98719 36.6397 53.0205
RightForeArm  171.568 55.5518 165.534
RightHand  -0.906397 3.6632 -11.9073
LeftUpLeg  -2.63105 16.9205 6.26087
LeftLeg  19.8827 4.99247 2.43906
LeftFoot  -6.99597 0.266554 -5.91024
LeftToes  1.06245e-005 4.65869e-005 -8.65517e-006
52
root  11.3275 39.3443 11.6059 105.74 88.394 114.063
RightUpLeg  -4.45477 -17.587 -12.4468
RightLeg  25.1662 -3.30097 -1.92717
RightFoot  -7.75264 -0.231679 5.70734
RightToes  0.000481921 0.542163 -0.142578
Spine  11.0822 -0.718964 1.79827
Spine1  14.1284 -1.21519 2.44415
HEad  9.14491 1.57606 -1.696
LeftShoulder1  6.30107 -14.9784 -27.9846
LeftArm  -18.6269 -40.4513 -44.7115
LeftForeArm  -174.122 -56.672 -166.106
LeftHand  -0.25398 0.0180481 5.50724
RightShoulder  3.9506 9.96794 23.1138
RightArm  -5.78691 29.8888 50.7873
RightForeArm  171.907 51.5016 167.472
RightHand  -0.764469 3.01271 -10.8062
LeftUpLeg  -4.19102 14.1423 6.12704
LeftLeg  24.8183 6.29317 3.50441
LeftFoot  -8.82229 0.178945 -5.72111
LeftToes  1.06245e-005 4.65869e-005 -8.65517e-006
53
root  11.27 38.911 11.6051 143.451 87.1748 153.295
RightUpLeg  -4.36801 -18.0962 -13.1987
RightLeg  29.3765 -4.02105 -2.68516
RightFoot  -9.93198 -0.141087 5.94754
RightToes  0.000481921 0.542163 -0.142578
Spine  13.6295 -1.36949 -0.342227
Spine1  13.6829 -2.86823 5.08194
HEad  8.7859 3.06918 -2.34695
LeftShoulder1  6.11527 -14.4469 -27.9633
LeftArm  -18.7413 -37.89 -44.3111
LeftForeArm  -173.56 -55.3268 -166.819
LeftHand  -0.25398 0.0180481 5.50724
RightShoulder  3.84535 9.26087 23.9569
RightArm  -3.91559 22.1658 49.8501
RightForeArm  172.967 48.5291 168.747
RightHand  -0.565577 2.11649 -8.95604
LeftUpLeg  -5.35179 10.8005 5.8525
LeftLeg  29.3656 7.00157 4.58478
LeftFoot  -10.2211 0.114398 -5.45206
LeftToes  1.06245e-005 4.65869e-005 -8.65517e-006
54
root  11.2488 38.5861 11.6694 159.557 84.4469 170.538
RightUpLeg  -3.64397 -19.6358 -13.9535
RightLeg  32.294 -4.87618 -3.56563
RightFoot  -11.5017 -0.0699394 5.95473
RightToes  0.000481921 0.542163 -0.142578
Spine  15.622 -2.27952 -2.99433
Spine1  13.6123 -5.17497 8.4125
HEad  8.59627 5.0927 -3.54498
LeftShoulder1  5.87005 -13.3958 -28.6581
LeftArm  -18.7069 -34.9587 -43.2889
LeftForeArm  -172.903 -53.4924 -167.714
LeftHand  -0.25398 0.0180481 5.50724
RightShoulder  3.64209 8.35582 24.576
RightArm  -2.04096 14.4778 50.6229
RightForeArm  175.499 47.0639 169.453
RightHand  -0.398865 1.6649 -6.76781
LeftUpLeg  -6.39614 7.17687 5.52625
LeftLeg  32.4762 7.01453 5.13186
LeftFoot  -10.9694 0.0830103 -5.36091
LeftToes  1.06245e-005 4.65869e-005 -8.65517e-006
55
root  11.2541 38.4868 11.8276 165.393 80.9643 176.36
RightUpLeg  -3.08937 -21.4869 -14.1444
RightLeg  33.36 -6.25927 -4.66986
RightFoot  -12.1448 -0.0411684 5.87795
RightToes  0.000481921 0.542163 -0.142578
Spine  16.6463 -3.11047 -5.41754
Spine1  13.5096 -7.3727 11.5581
HEad  8.3388 6.80468 -5.17977
LeftShoulder1  5.61966 -12.1383 -29.8694
LeftArm  -17.7975 -31.4317 -42.4437
LeftForeArm  -172.622 -51.5182 -168.576
LeftHand  -0.25398 0.0180481 5.50724
RightShoulder  3.5608 7.74131 25.57
RightArm  -1.79732 7.91414 51.4364
RightForeArm  178.121 46.2734 169.901
RightHand  -0.26554 1.07859 -4.87188
LeftUpLeg  -7.6768 4.42125 5.36117
LeftLeg  33.3116 6.06489 4.6294
LeftFoot  -10.7926 0.0907449 -5.42275
LeftToes  1.06245e-005 4.65869e-005 -8.65517e-006
56
root  11.2452 38.65 12.0657 168.473 77.3116 178.19
RightUpLeg  -2.99028 -23.476 -13.7442
RightLeg  32.3897 -8.00403 -5.68156
RightFoot  -11.7703 -0.058025 5.88256
RightToes  0.000481921 0.542163 -0.142578
Spine  16.7829 -3.4451 -6.57213
Spine1  12.9583 -8.40856 13.4121
HEad  8.05084 6.99175 -6.74156
LeftShoulder1  5.4929 -11.3802 -30.854
LeftArm  -15.4864 -27.9388 -42.8657
LeftForeArm  -172.819 -50.4511 -168.988
LeftHand  -0.25398 0.0180481 5.50724
RightShoulder  3.61656 7.63056 26.4223
RightArm  -3.72025 4.13493 50.9251
RightForeArm  179.343 45.7188 170.172
RightHand  -0.131557 -0.780137 -3.16967
LeftUpLeg  -9.11304 3.1048 5.32419
LeftLeg  31.5649 4.23183 3.15778
LeftFoot  -9.34544 0.149622 -5.39089
LeftToes  1.06245e-005 4.65869e-005 -8.65517e-006
